<mxfile host="app.diagrams.net" modified="2023-08-07T08:58:36.793Z" agent="Mozilla/5.0 (Macintosh; Intel Mac OS X 10_15_7) AppleWebKit/537.36 (KHTML, like Gecko) Chrome/115.0.0.0 Safari/537.36" etag="HQWIM9q7xQLui595nqqS" version="21.2.3" type="github">
  <diagram name="第 1 页" id="b9hH2hvG6--hy-W-ePAx">
    <mxGraphModel dx="1853" dy="624" grid="1" gridSize="10" guides="1" tooltips="1" connect="1" arrows="1" fold="1" page="1" pageScale="1" pageWidth="827" pageHeight="1169" math="0" shadow="0">
      <root>
        <mxCell id="0" />
        <mxCell id="1" parent="0" />
        <mxCell id="jSovdXqeeQoSE5f5P-kR-3" style="edgeStyle=orthogonalEdgeStyle;rounded=1;orthogonalLoop=1;jettySize=auto;html=1;strokeWidth=2;fillColor=#cdeb8b;strokeColor=#36393d;shadow=0;entryX=0;entryY=0.5;entryDx=0;entryDy=0;" edge="1" parent="1" source="jSovdXqeeQoSE5f5P-kR-1" target="jSovdXqeeQoSE5f5P-kR-2">
          <mxGeometry relative="1" as="geometry">
            <mxPoint x="540" y="205" as="targetPoint" />
          </mxGeometry>
        </mxCell>
        <mxCell id="jSovdXqeeQoSE5f5P-kR-1" value="&lt;b&gt;&lt;font style=&quot;font-size: 16px;&quot;&gt;A Document&lt;/font&gt;&lt;/b&gt;" style="rounded=1;whiteSpace=wrap;html=1;strokeWidth=2;fillColor=#cdeb8b;strokeColor=#36393d;shadow=0;" vertex="1" parent="1">
          <mxGeometry x="230" y="180" width="120" height="50" as="geometry" />
        </mxCell>
        <mxCell id="jSovdXqeeQoSE5f5P-kR-2" value="&lt;b&gt;&lt;font style=&quot;font-size: 16px;&quot;&gt;B Document&lt;/font&gt;&lt;/b&gt;" style="rounded=1;whiteSpace=wrap;html=1;strokeWidth=2;fillColor=#cdeb8b;strokeColor=#36393d;shadow=0;" vertex="1" parent="1">
          <mxGeometry x="550" y="180" width="120" height="50" as="geometry" />
        </mxCell>
        <mxCell id="jSovdXqeeQoSE5f5P-kR-4" value="&lt;b&gt;&lt;font style=&quot;font-size: 18px;&quot;&gt;assign&lt;/font&gt;&lt;/b&gt;" style="text;html=1;align=center;verticalAlign=middle;resizable=0;points=[];autosize=1;strokeColor=none;fillColor=none;" vertex="1" parent="1">
          <mxGeometry x="410" y="170" width="80" height="40" as="geometry" />
        </mxCell>
        <mxCell id="jSovdXqeeQoSE5f5P-kR-6" value="" style="curved=1;endArrow=classic;html=1;rounded=0;exitX=0.5;exitY=1;exitDx=0;exitDy=0;strokeWidth=2;fillColor=#cdeb8b;strokeColor=#36393d;" edge="1" parent="1" source="jSovdXqeeQoSE5f5P-kR-2">
          <mxGeometry width="50" height="50" relative="1" as="geometry">
            <mxPoint x="650" y="270" as="sourcePoint" />
            <mxPoint x="290" y="230" as="targetPoint" />
            <Array as="points">
              <mxPoint x="570" y="290" />
              <mxPoint x="350" y="290" />
            </Array>
          </mxGeometry>
        </mxCell>
        <mxCell id="jSovdXqeeQoSE5f5P-kR-7" value="&lt;b&gt;&lt;font style=&quot;font-size: 23px;&quot;&gt;abort&lt;/font&gt;&lt;/b&gt;" style="text;html=1;align=center;verticalAlign=middle;resizable=0;points=[];autosize=1;strokeColor=none;fillColor=none;" vertex="1" parent="1">
          <mxGeometry x="414" y="243" width="80" height="40" as="geometry" />
        </mxCell>
        <mxCell id="jSovdXqeeQoSE5f5P-kR-14" style="edgeStyle=orthogonalEdgeStyle;rounded=1;orthogonalLoop=1;jettySize=auto;html=1;strokeWidth=2;fillColor=#cdeb8b;strokeColor=#36393d;shadow=0;entryX=0;entryY=0.5;entryDx=0;entryDy=0;" edge="1" parent="1" source="jSovdXqeeQoSE5f5P-kR-15" target="jSovdXqeeQoSE5f5P-kR-16">
          <mxGeometry relative="1" as="geometry">
            <mxPoint x="540" y="445" as="targetPoint" />
          </mxGeometry>
        </mxCell>
        <mxCell id="jSovdXqeeQoSE5f5P-kR-15" value="&lt;b&gt;&lt;font style=&quot;font-size: 16px;&quot;&gt;A Document&lt;/font&gt;&lt;/b&gt;" style="rounded=1;whiteSpace=wrap;html=1;strokeWidth=2;fillColor=#ffcc99;strokeColor=#36393d;shadow=0;" vertex="1" parent="1">
          <mxGeometry x="230" y="420" width="120" height="50" as="geometry" />
        </mxCell>
        <mxCell id="jSovdXqeeQoSE5f5P-kR-16" value="&lt;b&gt;&lt;font style=&quot;font-size: 16px;&quot;&gt;B Document&lt;/font&gt;&lt;/b&gt;" style="rounded=1;whiteSpace=wrap;html=1;strokeWidth=2;fillColor=#cdeb8b;strokeColor=#36393d;shadow=0;" vertex="1" parent="1">
          <mxGeometry x="550" y="420" width="120" height="50" as="geometry" />
        </mxCell>
        <mxCell id="jSovdXqeeQoSE5f5P-kR-17" value="&lt;b&gt;&lt;font style=&quot;font-size: 18px;&quot;&gt;assign&lt;/font&gt;&lt;/b&gt;" style="text;html=1;align=center;verticalAlign=middle;resizable=0;points=[];autosize=1;strokeColor=none;fillColor=none;" vertex="1" parent="1">
          <mxGeometry x="120" y="400" width="80" height="40" as="geometry" />
        </mxCell>
        <mxCell id="jSovdXqeeQoSE5f5P-kR-18" value="" style="curved=1;endArrow=classic;html=1;rounded=0;exitX=0.5;exitY=1;exitDx=0;exitDy=0;strokeWidth=2;fillColor=#cdeb8b;strokeColor=#36393d;entryX=1;entryY=1;entryDx=0;entryDy=0;" edge="1" parent="1" source="jSovdXqeeQoSE5f5P-kR-16" target="jSovdXqeeQoSE5f5P-kR-20">
          <mxGeometry width="50" height="50" relative="1" as="geometry">
            <mxPoint x="650" y="510" as="sourcePoint" />
            <mxPoint x="130" y="460" as="targetPoint" />
            <Array as="points">
              <mxPoint x="570" y="530" />
              <mxPoint x="330" y="560" />
            </Array>
          </mxGeometry>
        </mxCell>
        <mxCell id="jSovdXqeeQoSE5f5P-kR-19" value="&lt;b&gt;&lt;font style=&quot;font-size: 23px;&quot;&gt;abort&lt;/font&gt;&lt;/b&gt;" style="text;html=1;align=center;verticalAlign=middle;resizable=0;points=[];autosize=1;strokeColor=none;fillColor=none;" vertex="1" parent="1">
          <mxGeometry x="360" y="500" width="80" height="40" as="geometry" />
        </mxCell>
        <mxCell id="jSovdXqeeQoSE5f5P-kR-21" style="edgeStyle=orthogonalEdgeStyle;rounded=0;orthogonalLoop=1;jettySize=auto;html=1;strokeWidth=2;entryX=0;entryY=0.5;entryDx=0;entryDy=0;" edge="1" parent="1" source="jSovdXqeeQoSE5f5P-kR-20" target="jSovdXqeeQoSE5f5P-kR-15">
          <mxGeometry relative="1" as="geometry">
            <mxPoint x="220" y="445" as="targetPoint" />
          </mxGeometry>
        </mxCell>
        <mxCell id="jSovdXqeeQoSE5f5P-kR-20" value="&lt;b&gt;&lt;font style=&quot;font-size: 16px;&quot;&gt;X Document&lt;/font&gt;&lt;/b&gt;" style="rounded=1;whiteSpace=wrap;html=1;strokeWidth=2;fillColor=#cdeb8b;strokeColor=#36393d;shadow=0;" vertex="1" parent="1">
          <mxGeometry x="-10" y="420" width="120" height="50" as="geometry" />
        </mxCell>
        <mxCell id="jSovdXqeeQoSE5f5P-kR-22" value="&lt;span style=&quot;font-size: 18px;&quot;&gt;&lt;b&gt;replace&lt;/b&gt;&lt;/span&gt;" style="text;html=1;align=center;verticalAlign=middle;resizable=0;points=[];autosize=1;strokeColor=none;fillColor=none;" vertex="1" parent="1">
          <mxGeometry x="405" y="400" width="90" height="40" as="geometry" />
        </mxCell>
      </root>
    </mxGraphModel>
  </diagram>
</mxfile>
